<svg xmlns="http://www.w3.org/2000/svg" width="22.667" height="18.667" viewBox="0 0 22.667 18.667">
  <g id="Icon_-_Twitter" data-name="Icon - Twitter" transform="translate(-5.333 -6.667)">
    <path id="Twitter" d="M11.006-13.7l.049.807-.819-.1a13.338,13.338,0,0,1-7.8-3.823L1.359-17.886l-.278.791A4.743,4.743,0,0,0,2.1-12.218c.655.692.508.791-.622.379A1.937,1.937,0,0,0,.7-12.02a5.887,5.887,0,0,0,.59,2.208A5.281,5.281,0,0,0,3.538-7.7l.8.379-.95.016c-.917,0-.95.016-.852.362A4.945,4.945,0,0,0,5.6-4.243L6.617-3.9l-.884.527A9.245,9.245,0,0,1,1.343-2.15,4.866,4.866,0,0,0,0-2.019,12.479,12.479,0,0,0,3.161-.569,13.877,13.877,0,0,0,13.9-1.788a14.342,14.342,0,0,0,5.454-6.393,16.946,16.946,0,0,0,1.114-4.943c0-.758.049-.857.966-1.763a10.772,10.772,0,0,0,1.146-1.269c.164-.313.147-.313-.688-.033-1.392.494-1.589.428-.9-.313a4.79,4.79,0,0,0,1.114-1.763c0-.049-.246.033-.524.181a9.156,9.156,0,0,1-1.441.56l-.884.28-.8-.544a6.675,6.675,0,0,0-1.392-.725,5.614,5.614,0,0,0-2.866.066A4.718,4.718,0,0,0,11.006-13.7Z" transform="translate(5.333 25.333)" fill="#b0b8bf"/>
  </g>
</svg>
