<svg xmlns="http://www.w3.org/2000/svg" width="22.4" height="22.4" viewBox="0 0 22.4 22.4">
  <g id="Icon_-_Linkedin" data-name="Icon - Linkedin" transform="translate(-5.228 -4.685)">
    <path id="In" d="M4.8,22.4H0V8H4.8Z" transform="translate(5.228 4.684)" fill="#b0b8bf"/>
    <path id="In-2" data-name="In" d="M2.386,4.8H2.358A2.3,2.3,0,0,1,0,2.4,2.309,2.309,0,0,1,2.414,0,2.3,2.3,0,0,1,4.8,2.4,2.31,2.31,0,0,1,2.386,4.8Z" transform="translate(5.228 4.684)" fill="#b0b8bf"/>
    <path id="In-3" data-name="In" d="M22.4,22.4H17.683V14.872c0-1.891-.683-3.181-2.39-3.181a2.579,2.579,0,0,0-2.42,1.71,3.177,3.177,0,0,0-.155,1.141V22.4H8S8.062,9.651,8,8.331h4.717v1.993A4.689,4.689,0,0,1,16.969,8c3.1,0,5.431,2.011,5.431,6.333Z" transform="translate(5.228 4.684)" fill="#b0b8bf"/>
  </g>
</svg>
