<svg xmlns="http://www.w3.org/2000/svg" width="21.333" height="21.333" viewBox="0 0 21.333 21.333">
  <g id="Icon_-_Instagram" data-name="Icon - Instagram" transform="translate(-5.333 -6)">
    <path id="Ig" d="M16.2,6.466a1.28,1.28,0,1,0-1.28-1.28A1.28,1.28,0,0,0,16.2,6.466Z" transform="translate(5.333 6)" fill="#b0b8bf"/>
    <path id="Ig-2" data-name="Ig" d="M5.339,10.661a5.333,5.333,0,1,0,5.333-5.333A5.339,5.339,0,0,0,5.339,10.661Zm2.672.005a2.667,2.667,0,1,1,2.667,2.667A2.669,2.669,0,0,1,8.01,10.667Z" transform="translate(5.333 6)" fill="#b0b8bf"/>
    <path id="Ig-3" data-name="Ig" d="M5.333,21.333H16A5.618,5.618,0,0,0,21.333,16V5.333A5.618,5.618,0,0,0,16,0H5.333A5.618,5.618,0,0,0,0,5.333V16A5.618,5.618,0,0,0,5.333,21.333Zm-2.667-16A3.02,3.02,0,0,1,5.333,2.667H16a3.02,3.02,0,0,1,2.667,2.667V16A3.02,3.02,0,0,1,16,18.667H5.333A2.975,2.975,0,0,1,2.667,16Z" transform="translate(5.333 6)" fill="#b0b8bf"/>
  </g>
</svg>
